<?xml version="1.0" encoding="utf-8"?>
<!-- Generator: Adobe Illustrator 21.0.0, SVG Export Plug-In . SVG Version: 6.00 Build 0)  -->
<svg version="1.1" id="Layer_1" xmlns="http://www.w3.org/2000/svg" xmlns:xlink="http://www.w3.org/1999/xlink" x="0px" y="0px"
	 viewBox="0 0 961 1080" style="enable-background:new 0 0 961 1080;" xml:space="preserve">
<style type="text/css">
	.st0{fill:#C4960C;}
	.st1{fill:#FFFFFF;}
</style>
<rect x="989" y="1" class="st0" width="960.3" height="1080"/>
<g>
	<g>
		<path class="st0" d="M192.8,535.1c-4-2.9-8.5-4.9-13.3-5.9c-4.9-1-12.4-1.5-22.7-1.5H98v2.1h0.7c4.2,0.2,7.5,1,10.1,2.2
			c2.6,1.2,4.7,3,6.4,5.5c1.2,1.8,2,4.1,2.5,6.9c0.5,2.9,0.7,6.9,0.7,12.2v67.8c0,6.3-0.4,11-1.1,14c-0.7,3-2.1,5.5-4.2,7.5
			c-1.8,1.7-3.8,3-6.1,3.8c-2.3,0.8-5.3,1.3-9.1,1.5v2.1h62.3v-2.1c-3.8-0.2-6.8-0.7-9.1-1.5c-2.3-0.8-4.3-2.1-6.1-3.8
			c-2-2-3.4-4.5-4.1-7.5c-0.8-3-1.1-7.7-1.1-13.9v-33h19.1c8.4,0,13.8-0.1,16-0.3c6.9-0.6,12.8-2.2,17.7-4.9
			c9.4-5.2,14-13.4,14-24.6C206.7,550.6,202.1,541.8,192.8,535.1z M173.6,582.2c-2.7,2.4-5.8,4-9.3,4.9c-3.5,0.9-8.4,1.3-14.9,1.3
			h-9.5v-57.8h8.2c5.3,0,8.7,0.1,10.2,0.2c5.5,0.6,10.2,2.4,14.1,5.5c3.4,2.6,6.1,6.1,7.9,10.3c1.8,4.2,2.8,8.8,2.8,13.8
			C183.1,569.5,179.9,576.8,173.6,582.2z M273,640.5c-0.4,2.6-1.2,4.7-2.4,6.2c-1.1,1.5-2.4,2.5-3.9,3.1c-1.4,0.6-3.8,1.1-7.2,1.6
			v1.9h42.3v-1.9c-4.8-0.9-8.1-2.1-9.9-3.8c-1.5-1.3-2.4-2.9-3-4.8c-0.5-1.9-0.8-5-0.8-9.1l-0.1-7v-26.8c0-6.2-0.6-10.8-2-13.9
			c-1.3-3.1-3.7-5.7-7.2-7.8c-4.9-2.9-11.1-4.3-18.7-4.3c-5.9,0-11.2,1.1-15.9,3.3c-2.4,1.1-4.5,2.4-6.2,3.9
			c-1.7,1.5-3.7,3.5-5.9,6.2v-63l-27.6,3.3v2c2.9,0.2,5.1,0.6,6.6,1.4c1.5,0.7,2.8,2,3.9,3.7c1.1,1.6,1.8,3.7,2.1,6.2
			c0.3,2.6,0.5,7,0.5,13.2V626c0,5.4-0.1,9.5-0.4,12.4c-0.3,2.8-0.8,5-1.5,6.4c-1,2.1-2.4,3.7-4,4.5c-1.6,0.9-4.4,1.6-8.2,2.1v1.9
			h42.3v-1.9c-4.8-0.9-8.1-2.1-9.8-3.8c-1.5-1.3-2.5-2.9-3-4.8c-0.5-1.9-0.8-5-0.8-9.1l-0.1-6.8v-14.7c0-23.4,7.7-35.1,23.1-35.1
			c5.9,0,10.5,1.8,13.8,5.4c1.7,1.9,2.8,4.1,3.5,6.7c0.7,2.6,1.1,6.1,1.1,10.5v29.1C273.7,633.9,273.5,637.8,273,640.5z
			 M376.5,644.5c-1-1.6-1.7-3.7-2.1-6.2c-0.4-2.5-0.5-7-0.5-13.3v-49.9h-28.3v2c4.9,0.8,8.2,2,10,3.7c1.5,1.3,2.5,3,2.9,4.9
			c0.5,1.9,0.7,4.9,0.7,9.1l0.1,6.8v18c0,7.2-0.3,12.3-0.9,15.4c-0.6,3.1-1.8,5.9-3.7,8.3c-1.8,2.3-4.3,4.2-7.4,5.5
			c-3.2,1.4-6.5,2-10.1,2c-3.3,0-6.2-0.6-8.8-1.8c-2.6-1.2-4.6-2.8-6-4.9c-1.3-2-2.2-4.6-2.6-7.8c-0.5-3.2-0.7-8-0.7-14.6v-46.6
			h-28.3v2c4.8,0.8,8.1,2,10,3.7c1.4,1.3,2.4,3,2.9,4.9c0.5,1.9,0.8,4.9,0.8,9.1l0.1,7v32c0,6.7,2.4,11.9,7.1,15.6
			c4.9,3.7,11.3,5.6,19.4,5.6c11,0,20.5-3.8,28.5-11.5c0,3.9,0.4,7.8,1.3,11.5l26.5-3.4v-1.9c-2.9-0.2-5.1-0.7-6.6-1.4
			C379,647.4,377.7,646.2,376.5,644.5z M651.4,644.1c-1-1.6-1.7-3.7-2.1-6.2c-0.4-2.5-0.5-7-0.5-13.3v-49.9h-28.3v2
			c4.9,0.8,8.2,2,10,3.7c1.5,1.3,2.5,3,2.9,4.9c0.5,1.9,0.7,4.9,0.7,9.1l0.1,6.8v18c0,7.2-0.3,12.3-0.9,15.4
			c-0.6,3.1-1.8,5.9-3.7,8.3c-1.8,2.3-4.3,4.2-7.4,5.5c-3.1,1.3-6.5,2-10.1,2c-3.3,0-6.2-0.6-8.8-1.8c-2.6-1.2-4.6-2.8-6-4.9
			c-1.3-2-2.2-4.6-2.6-7.8c-0.5-3.2-0.7-8-0.7-14.6v-46.6h-28.3v2c4.8,0.8,8.2,2,10,3.7c1.4,1.3,2.4,3,2.9,4.9
			c0.5,1.9,0.8,4.9,0.8,9.1l0.1,7v32c0,6.7,2.4,11.9,7.1,15.6c4.9,3.7,11.3,5.6,19.4,5.6c11,0,20.5-3.8,28.5-11.5
			c0,3.9,0.4,7.7,1.3,11.5l26.5-3.4v-1.9c-2.9-0.2-5.1-0.7-6.7-1.4C653.9,647,652.6,645.8,651.4,644.1z M732.9,638.4
			c-0.3,2.8-0.8,5-1.5,6.4c-1,2.1-2.4,3.7-4,4.5c-1.7,0.9-4.4,1.6-8.2,2.1v1.9h42.3v-1.9c-4.8-0.9-8.1-2.1-9.9-3.8
			c-1.5-1.3-2.5-2.9-3-4.8c-0.5-1.9-0.8-5-0.8-9.1v-38.9c0-6.7-2.5-11.8-7.4-15.4c-5-3.7-11.6-5.5-19.7-5.5
			c-10.9,0-20.3,3.8-28.3,11.5v-1.5c0-3.1-0.4-6.4-1.3-10l-26.2,3.3v1.9c2.9,0.2,5.1,0.6,6.6,1.4c1.5,0.8,2.8,2,3.9,3.7
			c1.1,1.6,1.8,3.6,2.1,6.2c0.3,2.5,0.5,6.9,0.5,13.2v22.6c0,5.4-0.1,9.5-0.4,12.3c-0.3,2.8-0.8,5-1.5,6.4c-1,2.1-2.4,3.6-4,4.5
			c-1.7,0.9-4.4,1.6-8.2,2.1v1.9h42.3v-1.9c-4.8-0.9-8.1-2.1-9.9-3.8c-1.5-1.3-2.5-2.9-3-4.8c-0.5-1.9-0.8-5-0.8-9.1l-0.1-6.8v-18
			c0-7.2,0.3-12.3,0.9-15.4c0.6-3.1,1.9-5.9,3.8-8.3c1.8-2.3,4.2-4.2,7.3-5.5c3.1-1.4,6.4-2,10-2c3.3,0,6.3,0.6,9.1,1.8
			c2.7,1.2,4.8,2.9,6.3,5c1.3,1.9,2.2,4.4,2.7,7.5c0.5,3.1,0.7,8,0.7,14.7v19.5C733.4,631.5,733.2,635.5,732.9,638.4z M833,575.3
			c-2-1.3-4.5-1.9-7.7-1.9c-2.9,0-5.5,0.5-7.9,1.4c-2.4,1-5.2,2.6-8.2,4.8c-6.5-4.2-12.8-6.3-19-6.3c-4.1,0-8.1,0.8-12,2.4
			c-3.9,1.6-7.3,3.8-10.1,6.7c-4.9,4.8-7.3,10.4-7.3,16.5c0,4.9,1.6,9.3,4.7,13.3c3.1,4,7.5,7.2,13.1,9.7c-5.8,1.4-9.8,2.7-12,4
			c-4.3,2.5-6.4,6-6.4,10.3c0,4.1,2,7.7,6,10.6c3.9,2.8,8.5,4.4,14.9,4.4l15.2,2c6.2,0.7,13.5,5.9,16.9,10.4
			c4.3,5.7,4.9,12.1,4.9,16.7c-0.1,12.2-4.6,20.7-9.9,24.5c-5.2,3.7-11.2,6.3-19.9,5.8c-8.5-0.5-16.2-4.2-20.6-8.5
			c-3.9-3.8-7-10.5-6.4-16.9c0.4-3.6,1.7-7.1,3.5-9c1.7-2,3.1-2.7,5.8-3.2c1.3-0.2,2.1-0.2,3.4,0.2c1.2,0.4,2.1,1.8,3.2,3.5l1.8-0.5
			v-1c0-2.7-0.9-4.9-2.8-6.5c-1.9-1.7-4-2.4-6.9-2.5c-2.5-0.1-6.5,1.4-9.2,4.4c-3.7,4.1-4.8,7.1-5.7,13.2c-0.9,6.4,1.6,13.2,5.2,18
			c6.6,8.8,16.1,12.7,30.2,12.7c13.2,0,23-3.5,29.5-10c8.7-8.7,10.4-20,10.8-28c0.4-7.9-2.1-20-11.2-27.9c-2.7-2.3-8.5-6.2-14.9-7.8
			c-7.2-1.8-10.9-1.3-18.3-2l-4.5-0.3c-10.2,0.3-12.8-3.5-12.5-6.1c0.5-4.5,5-6.7,14.5-7.3c6.9-0.4,11.2-0.9,12.5-1.1
			c4.4-0.8,8.3-2.5,12-4.8c7.5-4.7,11.1-11,11.1-19c0-6.4-2.6-12.7-7.9-18.8c2.6-2.3,5.2-3.4,7.6-3.4c2.3,0,4,0.7,5.2,2.2l2.2,2.8
			c1.7,2.1,3.6,3.1,5.7,3.1c1.4,0,2.5-0.5,3.4-1.4c0.9-0.9,1.4-2.1,1.4-3.5C836.5,578.8,835.3,576.9,833,575.3z M801.2,615.8
			c-2.6,4.1-6.2,6.2-10.8,6.2c-4.6,0-8.3-2.1-11.3-6.2c-2.9-4.2-4.4-9.5-4.4-16.2c0-3.2,0.4-6.4,1.3-9.5c0.8-3.2,2-5.9,3.4-8.1
			c2.8-4.4,6.6-6.6,11.2-6.6c3.9,0,7,1.7,9.5,5c3.4,4.5,5,10.6,5,18.2C805,605.9,803.7,611.7,801.2,615.8z M392.4,481.8l-52.5-52.6
			l0-4.6l4.7,0l52.5,52.4l0.1,0.1c6.5,5.8,14.8,8.9,23.5,8.9c19.5,0,35.4-15.9,35.4-35.4c0-12.8-7-24.5-17.9-30.8
			c10.9-6.3,17.9-17.9,17.9-30.7c0-19.5-15.9-35.4-35.4-35.4c-8.7,0-17,3.2-23.5,8.9l-52.5,52.5l-4.8,0l0-2.5l0-2.1l52.4-52.5
			l0.1-0.1c5.8-6.5,8.9-14.8,8.9-23.5c0-19.5-15.9-35.4-35.4-35.4c-12.8,0-24.5,7-30.7,17.9c-6.3-10.9-18-17.9-30.7-17.9
			c-19.5,0-35.4,15.9-35.4,35.4c0,8.7,3.2,17,8.9,23.5l52.5,52.5l0,4.7l-4.6,0l-52.5-52.4l-0.1-0.1c-6.5-5.8-14.8-8.9-23.5-8.9
			c-19.5,0-35.4,15.9-35.4,35.4c0,12.8,7,24.5,17.9,30.7c-10.9,6.3-17.9,18-17.9,30.7c0,19.5,15.9,35.4,35.4,35.4
			c8.7,0,17-3.2,23.5-8.9l52.5-52.5l4.6,0v4.6l-52.4,52.5l-0.1,0.1c-5.8,6.5-8.9,14.8-8.9,23.5c0,19.5,15.9,35.4,35.4,35.4
			c12.8,0,24.5-7,30.8-17.9c6.3,10.9,18,17.9,30.7,17.9c19.5,0,35.4-15.9,35.4-35.4C401.3,496.6,398.1,488.3,392.4,481.8z
			 M402.7,370.3c4.9-4.7,11.3-7.2,18-7.2c14.4,0,26.1,11.7,26.1,26.1c0,14.4-11.7,26-26.1,26l-62.4,0L402.7,370.3z M420.7,424.6
			c14.4,0,26.1,11.7,26.1,26.1c0,14.4-11.7,26-26.1,26c-6.7,0-13.1-2.6-18-7.2l-44.5-44.9L420.7,424.6z M267.8,469.4
			c-4.9,4.7-11.3,7.2-18,7.2c-14.4,0-26.1-11.7-26.1-26.1c0-14.4,11.7-26.1,26.1-26.1l62.4,0L267.8,469.4z M249.8,415.2
			c-14.4,0-26.1-11.7-26.1-26.1c0-14.4,11.7-26,26.1-26c6.8,0,13.1,2.6,18,7.2l44.5,44.9L249.8,415.2z M304.5,531.3
			c-14.4,0-26-11.7-26-26.1c0-6.7,2.6-13.1,7.2-18l44.9-44.5l0,62.5C330.5,519.6,318.8,531.3,304.5,531.3z M330.5,396.9l-44.8-44.4
			c-4.7-4.9-7.2-11.3-7.2-18c0-14.4,11.7-26.1,26.1-26.1c14.4,0,26.1,11.7,26.1,26.1L330.5,396.9z M365.9,308.4
			c14.4,0,26.1,11.7,26.1,26.1c0,6.8-2.6,13.1-7.2,18l-44.9,44.5l0-62.5C339.9,320.1,351.5,308.4,365.9,308.4z M365.9,531.3
			c-14.4,0-26-11.7-26-26.1l0-62.4l44.9,44.4c4.7,4.9,7.2,11.3,7.2,18C392,519.6,380.3,531.3,365.9,531.3z M488.7,650.8
			c-3.7-0.2-6.7-0.7-9-1.5c-2.3-0.8-4.3-2.1-6-3.8c-2-2-3.4-4.5-4.1-7.5c-0.7-3-1.1-7.7-1.1-13.9v-33.9h68.3V624
			c0,6.3-0.4,11-1.1,14c-0.7,3-2.1,5.5-4.1,7.4c-1.8,1.7-3.8,3-6.1,3.8c-2.3,0.8-5.3,1.3-9,1.5v2.1h61.4v-2.1
			c-3.7-0.2-6.6-0.7-8.9-1.5c-2.3-0.8-4.3-2.1-6.1-3.8c-2-2-3.4-4.5-4.1-7.5c-0.7-3-1.1-7.6-1.1-13.9v-67.8c0-6.3,0.4-10.9,1.1-13.9
			c0.7-3,2.1-5.5,4.1-7.5c1.8-1.8,3.8-3.1,6.1-3.9c2.3-0.8,5.2-1.3,8.9-1.5v-2.1h-61.4v2.1c3.7,0.2,6.7,0.7,9,1.5
			c2.3,0.8,4.3,2.1,6.1,3.9c2,2,3.3,4.4,4.1,7.4c0.7,3,1.1,7.7,1.1,14v29.5h-68.3v-29.5c0-6.3,0.4-10.9,1.1-13.9
			c0.7-3,2.1-5.5,4.1-7.5c1.8-1.8,3.8-3.1,6.1-3.9c2.3-0.8,5.2-1.3,8.9-1.5v-2.1h-61.4v2.1c3.6,0.2,6.6,0.7,8.9,1.5
			c2.3,0.8,4.3,2.1,6.1,3.9c2,2,3.4,4.4,4.1,7.4c0.7,3,1.1,7.7,1.1,14V624c0,6.3-0.4,11-1.1,14c-0.7,3-2.1,5.5-4.1,7.4
			c-1.7,1.7-3.7,3-6,3.8c-2.3,0.8-5.3,1.3-9,1.5v2.1h61.4V650.8z"/>
	</g>
	<g>
		<path class="st0" d="M217,715.9v-31.3h10.2c3.3,0,5.8,0.7,7.7,2.1c1.8,1.4,2.8,3.5,2.8,6.3c0,1.3-0.4,2.6-1.2,3.6
			c-0.8,1.1-1.9,1.9-3.3,2.4c2,0.3,3.7,1.2,4.9,2.7c1.2,1.5,1.8,3.2,1.8,5.3c0,2.9-0.9,5.1-2.8,6.6c-1.9,1.5-4.4,2.3-7.6,2.3H217z
			 M221.2,697.9h6.9c1.6,0,2.9-0.4,3.8-1.3c1-0.9,1.5-2.1,1.5-3.6c0-1.7-0.5-3-1.6-3.8c-1.1-0.8-2.6-1.3-4.6-1.3h-6V697.9z
			 M221.2,701.2v11.4h8.2c1.9,0,3.4-0.5,4.5-1.4c1.1-1,1.6-2.3,1.6-4.1c0-1.7-0.5-3.1-1.6-4.2c-1.1-1.1-2.6-1.6-4.4-1.7h-0.3H221.2z
			"/>
		<path class="st0" d="M261.1,707.9h-11.8l-2.8,8.1h-4.3l11.3-31.3h3.6l11,31.3h-4.3L261.1,707.9z M250.6,704.3h9.3l-4.6-13.4h-0.1
			L250.6,704.3z M253.8,682l0-3.3c1.1-0.1,1.9-0.2,2.3-0.4c0.5-0.2,0.7-0.6,0.7-1.1c0-0.6-0.3-1-0.9-1.2c-0.6-0.3-1.5-0.4-2.5-0.4
			l0.2-2.3c2.1,0,3.7,0.4,4.9,1.1c1.1,0.7,1.7,1.7,1.7,3c0,1-0.3,1.8-0.9,2.3s-1.4,0.8-2.3,1l0,1.5H253.8z"/>
		<path class="st0" d="M296.5,703.1c0,3.8-1.2,7-3.6,9.5c-2.4,2.5-5.4,3.8-9.2,3.8c-3.7,0-6.6-1.3-8.9-3.8c-2.3-2.5-3.4-5.7-3.4-9.5
			v-5.6c0-3.8,1.1-7,3.4-9.5c2.3-2.5,5.3-3.8,8.9-3.8c3.8,0,6.9,1.3,9.2,3.8c2.4,2.5,3.6,5.7,3.6,9.5V703.1z M292.2,697.5
			c0-2.9-0.8-5.2-2.3-7c-1.5-1.8-3.6-2.8-6.2-2.8c-2.5,0-4.4,0.9-5.9,2.8c-1.5,1.8-2.2,4.2-2.2,7v5.6c0,2.9,0.7,5.3,2.2,7.1
			c1.5,1.8,3.4,2.8,5.9,2.8c2.6,0,4.7-0.9,6.2-2.7c1.5-1.8,2.3-4.2,2.3-7.1V697.5z"/>
		<path class="st0" d="M337.2,715.9h-4.2v-13.8h-15.2v13.8h-4.2v-31.3h4.2v14.1h15.2v-14.1h4.2V715.9z"/>
		<path class="st0" d="M349.1,715.9h-4.3v-31.3h4.3V715.9z"/>
		<path class="st0" d="M374,701.4h-12.8v11.2h15v3.3h-19.3v-31.3h19v3.3h-14.8v10.1H374V701.4z M368.5,676.8h-4.3l-5.8,5.5l0,0.1
			h3.6l4.2-4l4.2,4h3.7l0-0.1L368.5,676.8z M373.7,679.4l0-2.9c0.9-0.1,1.6-0.2,2-0.4c0.4-0.2,0.6-0.5,0.6-1c0-0.5-0.3-0.8-0.8-1.1
			c-0.5-0.2-1.3-0.3-2.1-0.3l0.1-2c1.8,0,3.2,0.3,4.2,0.9c1,0.6,1.5,1.5,1.5,2.5c0,0.9-0.3,1.5-0.8,2c-0.5,0.5-1.2,0.7-2,0.8l0,1.3
			H373.7z"/>
		<path class="st0" d="M396.7,710.1h0.1l10-25.4h5.3v31.3h-4.2v-23.4l-0.1,0l-9.5,23.5h-2.9l-9.8-24.2l-0.1,0v24.2h-4.2v-31.3h5.6
			L396.7,710.1z"/>
		<path class="st0" d="M454,715.9h-4.2L434.7,692l-0.1,0v23.9h-4.2v-31.3h4.2l15.1,23.9l0.1,0v-23.8h4.2V715.9z"/>
		<path class="st0" d="M485,715.9h-4.2v-13.8h-15.2v13.8h-4.2v-31.3h4.2v14.1h15.2v-14.1h4.2V715.9z"/>
		<path class="st0" d="M508.8,707.9h-11.8l-2.8,8.1h-4.3l11.3-31.3h3.6l11,31.3h-4.3L508.8,707.9z M509.6,681v0.5h-3.5l-3.2-3.2
			l-3.1,3.2h-3.4V681l5.3-5.1h2.6L509.6,681z M498.3,704.3h9.3l-4.6-13.4h-0.1L498.3,704.3z"/>
		<path class="st0" d="M544.2,715.9h-4.2L524.9,692l-0.1,0v23.9h-4.2v-31.3h4.2l15.1,23.9l0.1,0v-23.8h4.2V715.9z"/>
		<path class="st0" d="M584.3,688H574v28h-4.2v-28h-10.2v-3.3h24.7V688z"/>
		<path class="st0" d="M612.4,715.9h-4.2v-13.8H593v13.8h-4.2v-31.3h4.2v14.1h15.2v-14.1h4.2V715.9z"/>
		<path class="st0" d="M643.6,703.1c0,3.8-1.2,7-3.6,9.5c-2.4,2.5-5.4,3.8-9.2,3.8c-3.7,0-6.6-1.3-8.9-3.8c-2.3-2.5-3.4-5.7-3.4-9.5
			v-5.6c0-3.8,1.1-7,3.4-9.5c2.3-2.5,5.3-3.8,8.9-3.8c3.8,0,6.9,1.3,9.2,3.8c2.4,2.5,3.6,5.7,3.6,9.5V703.1z M639.4,697.5
			c0-2.9-0.8-5.2-2.3-7c-1.5-1.8-3.6-2.8-6.2-2.8c-2.5,0-4.4,0.9-5.9,2.8c-1.5,1.8-2.2,4.2-2.2,7v5.6c0,2.9,0.7,5.3,2.2,7.1
			c1.5,1.8,3.4,2.8,5.9,2.8c2.6,0,4.7-0.9,6.2-2.7c1.5-1.8,2.3-4.2,2.3-7.1V697.5z M633.4,723.3h-4.7V719h4.7V723.3z"/>
	</g>
</g>
<g>
	<g>
		<path class="st1" d="M1194.2,535.1c-4-2.9-8.5-4.9-13.3-5.9c-4.9-1-12.4-1.5-22.7-1.5h-58.8v2.1h0.7c4.2,0.2,7.5,1,10.1,2.2
			c2.6,1.2,4.7,3,6.4,5.5c1.2,1.8,2,4.1,2.5,6.9c0.5,2.9,0.7,6.9,0.7,12.2v67.8c0,6.3-0.4,11-1.1,14c-0.7,3-2.1,5.5-4.2,7.5
			c-1.8,1.7-3.8,3-6.1,3.8c-2.3,0.8-5.3,1.3-9.1,1.5v2.1h62.3v-2.1c-3.8-0.2-6.8-0.7-9.1-1.5c-2.3-0.8-4.3-2.1-6.1-3.8
			c-2-2-3.4-4.5-4.1-7.5c-0.8-3-1.1-7.7-1.1-13.9v-33h19.1c8.4,0,13.8-0.1,16-0.3c6.9-0.6,12.8-2.2,17.7-4.9
			c9.4-5.2,14-13.4,14-24.6C1208.1,550.6,1203.5,541.8,1194.2,535.1z M1175,582.2c-2.7,2.4-5.8,4-9.3,4.9c-3.5,0.9-8.4,1.3-14.9,1.3
			h-9.5v-57.8h8.2c5.3,0,8.7,0.1,10.2,0.2c5.5,0.6,10.2,2.4,14.1,5.5c3.4,2.6,6.1,6.1,7.9,10.3c1.8,4.2,2.8,8.8,2.8,13.8
			C1184.5,569.5,1181.3,576.8,1175,582.2z M1274.4,640.5c-0.4,2.6-1.2,4.7-2.4,6.2c-1.1,1.5-2.4,2.5-3.9,3.1
			c-1.4,0.6-3.8,1.1-7.2,1.6v1.9h42.3v-1.9c-4.8-0.9-8.1-2.1-9.9-3.8c-1.5-1.3-2.4-2.9-3-4.8c-0.5-1.9-0.8-5-0.8-9.1l-0.1-7v-26.8
			c0-6.2-0.6-10.8-2-13.9c-1.3-3.1-3.7-5.7-7.2-7.8c-4.9-2.9-11.1-4.3-18.7-4.3c-5.9,0-11.2,1.1-15.9,3.3c-2.4,1.1-4.5,2.4-6.2,3.9
			c-1.7,1.5-3.7,3.5-5.9,6.2v-63l-27.6,3.3v2c2.9,0.2,5.1,0.6,6.6,1.4c1.5,0.7,2.8,2,3.9,3.7c1.1,1.6,1.8,3.7,2.1,6.2
			c0.3,2.6,0.5,7,0.5,13.2V626c0,5.4-0.1,9.5-0.4,12.4c-0.3,2.8-0.8,5-1.5,6.4c-1,2.1-2.4,3.7-4,4.5c-1.6,0.9-4.4,1.6-8.2,2.1v1.9
			h42.3v-1.9c-4.8-0.9-8.1-2.1-9.8-3.8c-1.5-1.3-2.5-2.9-3-4.8c-0.5-1.9-0.8-5-0.8-9.1l-0.1-6.8v-14.7c0-23.4,7.7-35.1,23.1-35.1
			c5.9,0,10.5,1.8,13.8,5.4c1.7,1.9,2.8,4.1,3.5,6.7c0.7,2.6,1.1,6.1,1.1,10.5v29.1C1275.1,633.9,1274.9,637.8,1274.4,640.5z
			 M1377.9,644.5c-1-1.6-1.7-3.7-2.1-6.2c-0.4-2.5-0.5-7-0.5-13.3v-49.9H1347v2c4.9,0.8,8.2,2,10,3.7c1.5,1.3,2.5,3,2.9,4.9
			c0.5,1.9,0.7,4.9,0.7,9.1l0.1,6.8v18c0,7.2-0.3,12.3-0.9,15.4c-0.6,3.1-1.8,5.9-3.7,8.3c-1.8,2.3-4.3,4.2-7.4,5.5
			c-3.2,1.4-6.5,2-10.1,2c-3.3,0-6.2-0.6-8.8-1.8c-2.6-1.2-4.6-2.8-6-4.9c-1.3-2-2.2-4.6-2.6-7.8c-0.5-3.2-0.7-8-0.7-14.6v-46.6
			h-28.3v2c4.8,0.8,8.1,2,10,3.7c1.4,1.3,2.4,3,2.9,4.9c0.5,1.9,0.8,4.9,0.8,9.1l0.1,7v32c0,6.7,2.4,11.9,7.1,15.6
			c4.9,3.7,11.3,5.6,19.4,5.6c11,0,20.5-3.8,28.5-11.5c0,3.9,0.4,7.8,1.3,11.5l26.5-3.4v-1.9c-2.9-0.2-5.1-0.7-6.6-1.4
			C1380.4,647.4,1379.1,646.2,1377.9,644.5z M1652.8,644.1c-1-1.6-1.7-3.7-2.1-6.2c-0.4-2.5-0.5-7-0.5-13.3v-49.9h-28.3v2
			c4.9,0.8,8.2,2,10,3.7c1.5,1.3,2.5,3,2.9,4.9c0.5,1.9,0.7,4.9,0.7,9.1l0.1,6.8v18c0,7.2-0.3,12.3-0.9,15.4
			c-0.6,3.1-1.8,5.9-3.7,8.3c-1.8,2.3-4.3,4.2-7.4,5.5c-3.1,1.3-6.5,2-10.1,2c-3.3,0-6.2-0.6-8.8-1.8c-2.6-1.2-4.6-2.8-6-4.9
			c-1.3-2-2.2-4.6-2.6-7.8c-0.5-3.2-0.7-8-0.7-14.6v-46.6H1567v2c4.8,0.8,8.2,2,10,3.7c1.4,1.3,2.4,3,2.9,4.9
			c0.5,1.9,0.8,4.9,0.8,9.1l0.1,7v32c0,6.7,2.4,11.9,7.1,15.6c4.9,3.7,11.3,5.6,19.4,5.6c11,0,20.5-3.8,28.5-11.5
			c0,3.9,0.4,7.7,1.3,11.5l26.5-3.4v-1.9c-2.9-0.2-5.1-0.7-6.7-1.4C1655.3,647,1654,645.8,1652.8,644.1z M1734.3,638.4
			c-0.3,2.8-0.8,5-1.5,6.4c-1,2.1-2.4,3.7-4,4.5c-1.7,0.9-4.4,1.6-8.2,2.1v1.9h42.3v-1.9c-4.8-0.9-8.1-2.1-9.9-3.8
			c-1.5-1.3-2.5-2.9-3-4.8c-0.5-1.9-0.8-5-0.8-9.1v-38.9c0-6.7-2.5-11.8-7.4-15.4c-5-3.7-11.6-5.5-19.7-5.5
			c-10.9,0-20.3,3.8-28.3,11.5v-1.5c0-3.1-0.4-6.4-1.3-10l-26.2,3.3v1.9c2.9,0.2,5.1,0.6,6.6,1.4c1.5,0.8,2.8,2,3.9,3.7
			c1.1,1.6,1.8,3.6,2.1,6.2c0.3,2.5,0.5,6.9,0.5,13.2v22.6c0,5.4-0.1,9.5-0.4,12.3c-0.3,2.8-0.8,5-1.5,6.4c-1,2.1-2.4,3.6-4,4.5
			c-1.7,0.9-4.4,1.6-8.2,2.1v1.9h42.3v-1.9c-4.8-0.9-8.1-2.1-9.9-3.8c-1.5-1.3-2.5-2.9-3-4.8c-0.5-1.9-0.8-5-0.8-9.1l-0.1-6.8v-18
			c0-7.2,0.3-12.3,0.9-15.4c0.6-3.1,1.9-5.9,3.8-8.3c1.8-2.3,4.2-4.2,7.3-5.5c3.1-1.4,6.4-2,10-2c3.3,0,6.3,0.6,9.1,1.8
			c2.7,1.2,4.8,2.9,6.3,5c1.3,1.9,2.2,4.4,2.7,7.5c0.5,3.1,0.7,8,0.7,14.7v19.5C1734.8,631.5,1734.6,635.5,1734.3,638.4z
			 M1834.4,575.3c-2-1.3-4.5-1.9-7.7-1.9c-2.9,0-5.5,0.5-7.9,1.4c-2.4,1-5.2,2.6-8.2,4.8c-6.5-4.2-12.8-6.3-19-6.3
			c-4.1,0-8.1,0.8-12,2.4c-3.9,1.6-7.3,3.8-10.1,6.7c-4.9,4.8-7.3,10.4-7.3,16.5c0,4.9,1.6,9.3,4.7,13.3c3.1,4,7.5,7.2,13.1,9.7
			c-5.8,1.4-9.8,2.7-12,4c-4.3,2.5-6.4,6-6.4,10.3c0,4.1,2,7.7,6,10.6c3.9,2.8,8.5,4.4,14.9,4.4l15.2,2c6.2,0.7,13.5,5.9,16.9,10.4
			c4.3,5.7,4.9,12.1,4.9,16.7c-0.1,12.2-4.6,20.7-9.9,24.5c-5.2,3.7-11.2,6.3-19.9,5.8c-8.5-0.5-16.2-4.2-20.6-8.5
			c-3.9-3.8-7-10.5-6.4-16.9c0.4-3.6,1.7-7.1,3.5-9c1.7-2,3.1-2.7,5.8-3.2c1.3-0.2,2.1-0.2,3.4,0.2c1.2,0.4,2.1,1.8,3.2,3.5l1.8-0.5
			v-1c0-2.7-0.9-4.9-2.8-6.5c-1.9-1.7-4-2.4-6.9-2.5c-2.5-0.1-6.5,1.4-9.2,4.4c-3.7,4.1-4.8,7.1-5.7,13.2c-0.9,6.4,1.6,13.2,5.2,18
			c6.6,8.8,16.1,12.7,30.2,12.7c13.2,0,23-3.5,29.5-10c8.7-8.7,10.4-20,10.8-28c0.4-7.9-2.1-20-11.2-27.9c-2.7-2.3-8.5-6.2-14.9-7.8
			c-7.2-1.8-10.9-1.3-18.3-2l-4.5-0.3c-10.2,0.3-12.8-3.5-12.5-6.1c0.5-4.5,5-6.7,14.5-7.3c6.9-0.4,11.2-0.9,12.5-1.1
			c4.4-0.8,8.3-2.5,12-4.8c7.5-4.7,11.1-11,11.1-19c0-6.4-2.6-12.7-7.9-18.8c2.6-2.3,5.2-3.4,7.6-3.4c2.3,0,4,0.7,5.2,2.2l2.2,2.8
			c1.7,2.1,3.6,3.1,5.7,3.1c1.4,0,2.5-0.5,3.4-1.4c0.9-0.9,1.4-2.1,1.4-3.5C1837.9,578.8,1836.7,576.9,1834.4,575.3z M1802.6,615.8
			c-2.6,4.1-6.2,6.2-10.8,6.2c-4.6,0-8.3-2.1-11.3-6.2c-2.9-4.2-4.4-9.5-4.4-16.2c0-3.2,0.4-6.4,1.3-9.5c0.8-3.2,2-5.9,3.4-8.1
			c2.8-4.4,6.6-6.6,11.2-6.6c3.9,0,7,1.7,9.5,5c3.4,4.5,5,10.6,5,18.2C1806.4,605.9,1805.1,611.7,1802.6,615.8z M1393.8,481.8
			l-52.5-52.6l0-4.6l4.7,0l52.5,52.4l0.1,0.1c6.5,5.8,14.8,8.9,23.5,8.9c19.5,0,35.4-15.9,35.4-35.4c0-12.8-7-24.5-17.9-30.8
			c10.9-6.3,17.9-17.9,17.9-30.7c0-19.5-15.9-35.4-35.4-35.4c-8.7,0-17,3.2-23.5,8.9l-52.5,52.5l-4.8,0l0-2.5l0-2.1l52.4-52.5
			l0.1-0.1c5.8-6.5,8.9-14.8,8.9-23.5c0-19.5-15.9-35.4-35.4-35.4c-12.8,0-24.5,7-30.7,17.9c-6.3-10.9-18-17.9-30.7-17.9
			c-19.5,0-35.4,15.9-35.4,35.4c0,8.7,3.2,17,8.9,23.5l52.5,52.5l0,4.7l-4.6,0l-52.5-52.4l-0.1-0.1c-6.5-5.8-14.8-8.9-23.5-8.9
			c-19.5,0-35.4,15.9-35.4,35.4c0,12.8,7,24.5,17.9,30.7c-10.9,6.3-17.9,18-17.9,30.7c0,19.5,15.9,35.4,35.4,35.4
			c8.7,0,17-3.2,23.5-8.9l52.5-52.5l4.6,0v4.6l-52.4,52.5l-0.1,0.1c-5.8,6.5-8.9,14.8-8.9,23.5c0,19.5,15.9,35.4,35.4,35.4
			c12.8,0,24.5-7,30.8-17.9c6.3,10.9,18,17.9,30.7,17.9c19.5,0,35.4-15.9,35.4-35.4C1402.7,496.6,1399.5,488.3,1393.8,481.8z
			 M1404.1,370.3c4.9-4.7,11.3-7.2,18-7.2c14.4,0,26.1,11.7,26.1,26.1c0,14.4-11.7,26-26.1,26l-62.4,0L1404.1,370.3z M1422.1,424.6
			c14.4,0,26.1,11.7,26.1,26.1c0,14.4-11.7,26-26.1,26c-6.7,0-13.1-2.6-18-7.2l-44.5-44.9L1422.1,424.6z M1269.2,469.4
			c-4.9,4.7-11.3,7.2-18,7.2c-14.4,0-26.1-11.7-26.1-26.1c0-14.4,11.7-26.1,26.1-26.1l62.4,0L1269.2,469.4z M1251.2,415.2
			c-14.4,0-26.1-11.7-26.1-26.1c0-14.4,11.7-26,26.1-26c6.8,0,13.1,2.6,18,7.2l44.5,44.9L1251.2,415.2z M1305.8,531.3
			c-14.4,0-26-11.7-26-26.1c0-6.7,2.6-13.1,7.2-18l44.9-44.5l0,62.5C1331.9,519.6,1320.2,531.3,1305.8,531.3z M1331.9,396.9
			l-44.8-44.4c-4.7-4.9-7.2-11.3-7.2-18c0-14.4,11.7-26.1,26.1-26.1c14.4,0,26.1,11.7,26.1,26.1L1331.9,396.9z M1367.3,308.4
			c14.4,0,26.1,11.7,26.1,26.1c0,6.8-2.6,13.1-7.2,18l-44.9,44.5l0-62.5C1341.3,320.1,1352.9,308.4,1367.3,308.4z M1367.3,531.3
			c-14.4,0-26-11.7-26-26.1l0-62.4l44.9,44.4c4.7,4.9,7.2,11.3,7.2,18C1393.4,519.6,1381.7,531.3,1367.3,531.3z M1490.1,650.8
			c-3.7-0.2-6.7-0.7-9-1.5c-2.3-0.8-4.3-2.1-6-3.8c-2-2-3.4-4.5-4.1-7.5c-0.7-3-1.1-7.7-1.1-13.9v-33.9h68.3V624
			c0,6.3-0.4,11-1.1,14c-0.7,3-2.1,5.5-4.1,7.4c-1.8,1.7-3.8,3-6.1,3.8c-2.3,0.8-5.3,1.3-9,1.5v2.1h61.4v-2.1
			c-3.7-0.2-6.6-0.7-8.9-1.5c-2.3-0.8-4.3-2.1-6.1-3.8c-2-2-3.4-4.5-4.1-7.5c-0.7-3-1.1-7.6-1.1-13.9v-67.8c0-6.3,0.4-10.9,1.1-13.9
			c0.7-3,2.1-5.5,4.1-7.5c1.8-1.8,3.8-3.1,6.1-3.9c2.3-0.8,5.2-1.3,8.9-1.5v-2.1h-61.4v2.1c3.7,0.2,6.7,0.7,9,1.5
			c2.3,0.8,4.3,2.1,6.1,3.9c2,2,3.3,4.4,4.1,7.4c0.7,3,1.1,7.7,1.1,14v29.5h-68.3v-29.5c0-6.3,0.4-10.9,1.1-13.9
			c0.7-3,2.1-5.5,4.1-7.5c1.8-1.8,3.8-3.1,6.1-3.9c2.3-0.8,5.2-1.3,8.9-1.5v-2.1h-61.4v2.1c3.6,0.2,6.6,0.7,8.9,1.5
			c2.3,0.8,4.3,2.1,6.1,3.9c2,2,3.4,4.4,4.1,7.4c0.7,3,1.1,7.7,1.1,14V624c0,6.3-0.4,11-1.1,14c-0.7,3-2.1,5.5-4.1,7.4
			c-1.7,1.7-3.7,3-6,3.8c-2.3,0.8-5.3,1.3-9,1.5v2.1h61.4V650.8z"/>
	</g>
	<g>
		<path class="st1" d="M1218.4,715.9v-31.3h10.2c3.3,0,5.8,0.7,7.7,2.1c1.8,1.4,2.8,3.5,2.8,6.3c0,1.3-0.4,2.6-1.2,3.6
			c-0.8,1.1-1.9,1.9-3.3,2.4c2,0.3,3.7,1.2,4.9,2.7c1.2,1.5,1.8,3.2,1.8,5.3c0,2.9-0.9,5.1-2.8,6.6c-1.9,1.5-4.4,2.3-7.6,2.3H1218.4
			z M1222.6,697.9h6.9c1.6,0,2.9-0.4,3.8-1.3c1-0.9,1.5-2.1,1.5-3.6c0-1.7-0.5-3-1.6-3.8c-1.1-0.8-2.6-1.3-4.6-1.3h-6V697.9z
			 M1222.6,701.2v11.4h8.2c1.9,0,3.4-0.5,4.5-1.4c1.1-1,1.6-2.3,1.6-4.1c0-1.7-0.5-3.1-1.6-4.2c-1.1-1.1-2.6-1.6-4.4-1.7h-0.3
			H1222.6z"/>
		<path class="st1" d="M1262.5,707.9h-11.8l-2.8,8.1h-4.3l11.3-31.3h3.6l11,31.3h-4.3L1262.5,707.9z M1252,704.3h9.3l-4.6-13.4h-0.1
			L1252,704.3z M1255.2,682l0-3.3c1.1-0.1,1.9-0.2,2.3-0.4s0.7-0.6,0.7-1.1c0-0.6-0.3-1-0.9-1.2c-0.6-0.3-1.5-0.4-2.5-0.4l0.2-2.3
			c2.1,0,3.7,0.4,4.9,1.1c1.1,0.7,1.7,1.7,1.7,3c0,1-0.3,1.8-0.9,2.3s-1.4,0.8-2.3,1l0,1.5H1255.2z"/>
		<path class="st1" d="M1297.9,703.1c0,3.8-1.2,7-3.6,9.5c-2.4,2.5-5.4,3.8-9.2,3.8c-3.7,0-6.6-1.3-8.9-3.8
			c-2.3-2.5-3.4-5.7-3.4-9.5v-5.6c0-3.8,1.1-7,3.4-9.5c2.3-2.5,5.3-3.8,8.9-3.8c3.8,0,6.9,1.3,9.2,3.8c2.4,2.5,3.6,5.7,3.6,9.5
			V703.1z M1293.6,697.5c0-2.9-0.8-5.2-2.3-7c-1.5-1.8-3.6-2.8-6.2-2.8c-2.5,0-4.4,0.9-5.9,2.8c-1.5,1.8-2.2,4.2-2.2,7v5.6
			c0,2.9,0.7,5.3,2.2,7.1c1.5,1.8,3.4,2.8,5.9,2.8c2.6,0,4.7-0.9,6.2-2.7c1.5-1.8,2.3-4.2,2.3-7.1V697.5z"/>
		<path class="st1" d="M1338.6,715.9h-4.2v-13.8h-15.2v13.8h-4.2v-31.3h4.2v14.1h15.2v-14.1h4.2V715.9z"/>
		<path class="st1" d="M1350.5,715.9h-4.3v-31.3h4.3V715.9z"/>
		<path class="st1" d="M1375.4,701.4h-12.8v11.2h15v3.3h-19.3v-31.3h19v3.3h-14.8v10.1h12.8V701.4z M1369.9,676.8h-4.3l-5.8,5.5
			l0,0.1h3.6l4.2-4l4.2,4h3.7l0-0.1L1369.9,676.8z M1375.1,679.4l0-2.9c0.9-0.1,1.6-0.2,2-0.4c0.4-0.2,0.6-0.5,0.6-1
			c0-0.5-0.3-0.8-0.8-1.1c-0.5-0.2-1.3-0.3-2.1-0.3l0.1-2c1.8,0,3.2,0.3,4.2,0.9c1,0.6,1.5,1.5,1.5,2.5c0,0.9-0.3,1.5-0.8,2
			c-0.5,0.5-1.2,0.7-2,0.8l0,1.3H1375.1z"/>
		<path class="st1" d="M1398.1,710.1h0.1l10-25.4h5.3v31.3h-4.2v-23.4l-0.1,0l-9.5,23.5h-2.9l-9.8-24.2l-0.1,0v24.2h-4.2v-31.3h5.6
			L1398.1,710.1z"/>
		<path class="st1" d="M1455.4,715.9h-4.2l-15.1-23.9l-0.1,0v23.9h-4.2v-31.3h4.2l15.1,23.9l0.1,0v-23.8h4.2V715.9z"/>
		<path class="st1" d="M1486.4,715.9h-4.2v-13.8H1467v13.8h-4.2v-31.3h4.2v14.1h15.2v-14.1h4.2V715.9z"/>
		<path class="st1" d="M1510.2,707.9h-11.8l-2.8,8.1h-4.3l11.3-31.3h3.6l11,31.3h-4.3L1510.2,707.9z M1511,681v0.5h-3.5l-3.2-3.2
			l-3.1,3.2h-3.4V681l5.3-5.1h2.6L1511,681z M1499.7,704.3h9.3l-4.6-13.4h-0.1L1499.7,704.3z"/>
		<path class="st1" d="M1545.6,715.9h-4.2l-15.1-23.9l-0.1,0v23.9h-4.2v-31.3h4.2l15.1,23.9l0.1,0v-23.8h4.2V715.9z"/>
		<path class="st1" d="M1585.7,688h-10.3v28h-4.2v-28H1561v-3.3h24.7V688z"/>
		<path class="st1" d="M1613.8,715.9h-4.2v-13.8h-15.2v13.8h-4.2v-31.3h4.2v14.1h15.2v-14.1h4.2V715.9z"/>
		<path class="st1" d="M1645,703.1c0,3.8-1.2,7-3.6,9.5c-2.4,2.5-5.4,3.8-9.2,3.8c-3.7,0-6.6-1.3-8.9-3.8c-2.3-2.5-3.4-5.7-3.4-9.5
			v-5.6c0-3.8,1.1-7,3.4-9.5c2.3-2.5,5.3-3.8,8.9-3.8c3.8,0,6.9,1.3,9.2,3.8c2.4,2.5,3.6,5.7,3.6,9.5V703.1z M1640.8,697.5
			c0-2.9-0.8-5.2-2.3-7c-1.5-1.8-3.6-2.8-6.2-2.8c-2.5,0-4.4,0.9-5.9,2.8c-1.5,1.8-2.2,4.2-2.2,7v5.6c0,2.9,0.7,5.3,2.2,7.1
			c1.5,1.8,3.4,2.8,5.9,2.8c2.6,0,4.7-0.9,6.2-2.7c1.5-1.8,2.3-4.2,2.3-7.1V697.5z M1634.8,723.3h-4.7V719h4.7V723.3z"/>
	</g>
</g>
</svg>
